# xmcd
#
# Track frame offsets:
# 150
# 16781
# 36361
# 55860
# 72856
# 93678
# 106353
# 120388
# 140043
# 154662
# 173970
# 186171
# 203338
# 217094
# 232764
#
# Disc length: 3279 seconds
#
#
# Revision: 4
# Processed by: cddbd v1.5.2PL0 Copyright (c) Steve Scherf et al.
# Submitted via: FreeRIP 2.96 
#
DISCID=cb0ccd0f
DTITLE=Elis Regina - Sem Limite [CD 1)
DYEAR=2001
DGENRE=MPB
TTITLE0=O Bêbado e a Equilibrista
TTITLE1=Como Nossos Pais
TTITLE2=Corsário
TTITLE3=Só Tinha de Ser com Você
TTITLE4=Saudosa Maloca
TTITLE5=Atrás da Porta
TTITLE6=O Mestre-Sala dos Mares
TTITLE7=Tatuagem
TTITLE8=Cartomante
TTITLE9=Preciso Aprender a Ser Só
TTITLE10=É com Esse que Eu Vou
TTITLE11=Querelas do Brasil (ao vivo)
TTITLE12=Retrato em Branco e Preto
TTITLE13=Vou Deitar e Rolar (Quaquaraquaquá)
TTITLE14=Tiradentes
EXTD=
EXTT0=
EXTT1=
EXTT2=
EXTT3=Elis e Tom
EXTT4=
EXTT5=
EXTT6=
EXTT7=
EXTT8=
EXTT9=
EXTT10=
EXTT11=
EXTT12=
EXTT13=
EXTT14=
PLAYORDER=
